<svg id="Ebene_1" data-name="Ebene 1" xmlns="http://www.w3.org/2000/svg" viewBox="0 0 34.9 28.68">
  <defs>
    <style>.cls-1 {
      fill: #6f58a1;
    }

    .cls-2 {
      fill: #fff;
    }

    .cls-3 {
      fill: #1d1d1b;
    }</style>
  </defs>
  <rect class="cls-1" width="13.74" height="28.68"/>
  <path class="cls-2"
        d="M5.86,5.84c.17-.08.51-.28,1-.58C7,5.17,7.43,5,8.09,4.59c.27-.14.61-.3,1-.49a1.71,1.71,0,0,1,.52-.17A.21.21,0,0,1,9.8,4a.26.26,0,0,1,.09.21.29.29,0,0,1-.15.25,1.45,1.45,0,0,1-.36.14A11.14,11.14,0,0,0,6.25,6.31,11.1,11.1,0,0,0,6,7.5,13.63,13.63,0,0,0,5.8,9.58a1,1,0,0,0,.08.46.25.25,0,0,0,.23.15c.21,0,.62-.41,1.24-1.25.12-.16.21-.23.28-.23s.14,0,.14.15a2.38,2.38,0,0,1-.51.93c-.49.69-.94,1-1.34,1a.65.65,0,0,1-.67-.52,2.63,2.63,0,0,1-.1-.81,8.76,8.76,0,0,1,.26-2.08c.17-.74.27-1.2.31-1.38-.22.38-.63,1-1.23,2a9.77,9.77,0,0,0-1.28,2.82c-.06.23-.17.35-.33.35A.27.27,0,0,1,2.63,11a.46.46,0,0,1,0-.21,4,4,0,0,1,.48-1.45c.18-.38.42-.85.73-1.41.12-.2.38-.61.79-1.22A17.33,17.33,0,0,0,6.26,3.79a2.39,2.39,0,0,1,.19-.41.3.3,0,0,1,.26-.13.24.24,0,0,1,.14,0,.23.23,0,0,1,.09.19A7.33,7.33,0,0,1,5.86,5.84Z"
        transform="translate(0)"/>
  <path class="cls-2"
        d="M10.27,7.06c.32,0,.48.19.48.56A3.81,3.81,0,0,1,10,9.51c-.53.83-1,1.24-1.52,1.24a.53.53,0,0,1-.5-.3.8.8,0,0,1-.08-.36,3,3,0,0,1,.52-1.56A3.81,3.81,0,0,1,9.58,7.31,1.33,1.33,0,0,1,10.27,7.06ZM9.66,9.18c-.1-.07-.15-.13-.15-.17s.07-.11.19-.25a1.6,1.6,0,0,0,.53-.91.16.16,0,0,0,0-.09.16.16,0,0,0-.15-.09A1,1,0,0,0,9.5,8,3.49,3.49,0,0,0,8.79,9a1.93,1.93,0,0,0-.29.9.34.34,0,0,0,.05.17.23.23,0,0,0,.2.1c.18,0,.38-.13.6-.4a2.33,2.33,0,0,0,.23-.35A.9.9,0,0,0,9.66,9.18Z"
        transform="translate(0)"/>
  <path class="cls-3"
        d="M15.5,8.69a.56.56,0,0,1,.32.07.25.25,0,0,1,.1.22.57.57,0,0,1-.15.37.92.92,0,0,1-.43.28.73.73,0,0,1-.26.06c-.1,0-.14,0-.14-.13A.12.12,0,0,1,15,9.44l.23-.06a.41.41,0,0,0,.23-.11.24.24,0,0,0,.1-.16A.14.14,0,0,0,15.53,9a.17.17,0,0,0-.12,0,.79.79,0,0,0-.44.16.48.48,0,0,0-.27.41.8.8,0,0,0,.18.42.93.93,0,0,1,.2.48.51.51,0,0,1-.27.45.76.76,0,0,1-.37.1.59.59,0,0,1-.62-.61A.69.69,0,0,1,14,10a.26.26,0,0,1,.18-.11q.09,0,.09.06a.16.16,0,0,1,0,.08.73.73,0,0,0-.08.33.38.38,0,0,0,.12.28.36.36,0,0,0,.24.09.25.25,0,0,0,.21-.08.28.28,0,0,0,.06-.18.64.64,0,0,0-.16-.36,1,1,0,0,1-.23-.55.73.73,0,0,1,.37-.58A1.4,1.4,0,0,1,15.5,8.69Z"
        transform="translate(0)"/>
  <path class="cls-3"
        d="M16.3,9.77a4.57,4.57,0,0,1,.51-.45,1.12,1.12,0,0,1,.44-.24.13.13,0,0,1,.1,0,.11.11,0,0,1,0,.07c0,.05,0,.11-.12.21a1.87,1.87,0,0,0-.25.38c.53-.52.9-.77,1.09-.77a.2.2,0,0,1,.11,0,.14.14,0,0,1,.05.1.41.41,0,0,1-.15.24,1.72,1.72,0,0,0-.65,1,.33.33,0,0,0,.06.23l.09.11a.11.11,0,0,1,0,.08.14.14,0,0,1,0,.1.21.21,0,0,1-.12.05.26.26,0,0,1-.21-.14.65.65,0,0,1-.12-.39,1.21,1.21,0,0,1,.18-.6,2.17,2.17,0,0,1,.21-.29,3.57,3.57,0,0,0-1,1.14c-.06.09-.12.14-.19.14s-.11,0-.11-.12a1.72,1.72,0,0,1,.19-.55,4.27,4.27,0,0,1,.27-.51,2.68,2.68,0,0,0-.88,1.17c0,.11-.11.17-.19.17a.13.13,0,0,1-.09,0,.13.13,0,0,1,0-.1,2.11,2.11,0,0,1,.23-.69,4.87,4.87,0,0,1,.53-1c.14-.2.24-.3.32-.3s.1,0,.1.1a.61.61,0,0,1-.13.23A5.85,5.85,0,0,0,16.3,9.77Z"
        transform="translate(0)"/>
  <path class="cls-3"
        d="M18.46,10.24v0a.28.28,0,0,0,0,.13.32.32,0,0,0,.28.12,1.48,1.48,0,0,0,1-.63c.07-.07.12-.11.17-.11s0,0,.07,0,0,0,0,.05-.11.23-.33.43a2.51,2.51,0,0,1-.55.39,1.16,1.16,0,0,1-.54.15.51.51,0,0,1-.4-.17.47.47,0,0,1-.1-.32,1.52,1.52,0,0,1,.54-1.08,1.24,1.24,0,0,1,.77-.44.25.25,0,0,1,.16.06.2.2,0,0,1,.09.18.85.85,0,0,1-.17.42A1.79,1.79,0,0,1,18.46,10.24Zm.08-.26a1.35,1.35,0,0,0,.38-.18,1.4,1.4,0,0,0,.37-.4.24.24,0,0,0,.06-.14s0-.06-.07-.06a.45.45,0,0,0-.25.13A1.6,1.6,0,0,0,18.54,10Z"
        transform="translate(0)"/>
  <path class="cls-3"
        d="M21.37,8.76A4.32,4.32,0,0,0,21,9.5a2.28,2.28,0,0,0-.27.87.21.21,0,0,0,0,.12.14.14,0,0,0,.11,0c.12,0,.25-.1.42-.3s.19-.26.27-.38.09-.11.14-.11a.09.09,0,0,1,.07,0,.09.09,0,0,1,0,.06,1.44,1.44,0,0,1-.33.54c-.26.33-.51.5-.72.5a.34.34,0,0,1-.29-.15.47.47,0,0,1-.08-.28,2.24,2.24,0,0,1,.24-.92l.32-.64-.14,0a.17.17,0,0,1-.12,0,.14.14,0,0,1-.08-.11.15.15,0,0,1,.1-.13l.25-.05a.69.69,0,0,0,.24-.06c.08-.13.21-.32.39-.56a2.8,2.8,0,0,1,.21-.25.2.2,0,0,1,.15-.08.1.1,0,0,1,.08,0,.14.14,0,0,1,.05.09.84.84,0,0,1-.2.33l-.18.27a2.23,2.23,0,0,1,.54-.1c.12,0,.19.05.19.15a.11.11,0,0,1-.07.11.38.38,0,0,1-.18,0,2.16,2.16,0,0,0-.51.12Z"
        transform="translate(0)"/>
  <path class="cls-3"
        d="M22.72,8.9a.14.14,0,0,1,.1,0,.09.09,0,0,1,0,.07.49.49,0,0,1-.1.19,6.06,6.06,0,0,0-.51.87,6.3,6.3,0,0,0-.28.72c0,.11-.1.17-.17.17a.11.11,0,0,1-.11-.06.12.12,0,0,1,0-.09,3.17,3.17,0,0,1,.22-.65,4.26,4.26,0,0,1,.55-1A1.63,1.63,0,0,1,22.6,9,.17.17,0,0,1,22.72,8.9Zm.65-1.21a.14.14,0,0,1,.16.15.47.47,0,0,1-.15.3.39.39,0,0,1-.28.16.15.15,0,0,1-.11,0,.21.21,0,0,1,0-.11.5.5,0,0,1,.18-.33A.36.36,0,0,1,23.37,7.69Z"
        transform="translate(0)"/>
  <path class="cls-3"
        d="M24.15,9.46a2.24,2.24,0,0,0-.22.81.51.51,0,0,0,.05.22.23.23,0,0,0,.19.11.83.83,0,0,0,.53-.3A2,2,0,0,0,25,9.91c.06-.08.12-.13.17-.13a.07.07,0,0,1,.08.08,1.33,1.33,0,0,1-.32.51,1.25,1.25,0,0,1-.9.57.37.37,0,0,1-.37-.24.85.85,0,0,1-.09-.38,2.12,2.12,0,0,1,.09-.5,4.21,4.21,0,0,0-.68.87c-.08.12-.15.18-.22.18a.09.09,0,0,1-.08,0,.12.12,0,0,1,0-.09A3.73,3.73,0,0,1,23,9.87a11.14,11.14,0,0,1,1.35-2.19,3.61,3.61,0,0,1,.7-.71.83.83,0,0,1,.45-.2.18.18,0,0,1,.13.06.21.21,0,0,1,.08.17,1.33,1.33,0,0,1-.31.72A6,6,0,0,1,24.36,8.8a5.85,5.85,0,0,1-.77.56c0,.05-.11.22-.25.5A4.41,4.41,0,0,1,24,9.25,2.23,2.23,0,0,1,24.46,9,.87.87,0,0,1,24.72,9a.11.11,0,0,1,.08,0,.09.09,0,0,1,0,.08c0,.08-.05.13-.16.15A2.29,2.29,0,0,0,24.15,9.46Zm-.29-.56a5.13,5.13,0,0,0,1-.9,3.4,3.4,0,0,0,.39-.53.6.6,0,0,0,.11-.25s0-.07-.08-.07-.34.18-.66.56A9.74,9.74,0,0,0,23.86,8.9Z"
        transform="translate(0)"/>
  <path class="cls-3"
        d="M26.81,8.69a.53.53,0,0,1,.31.07.23.23,0,0,1,.11.22.57.57,0,0,1-.15.37,1,1,0,0,1-.43.28.78.78,0,0,1-.26.06c-.1,0-.15,0-.15-.13a.14.14,0,0,1,.09-.12l.23-.06a.45.45,0,0,0,.23-.11.22.22,0,0,0,.09-.16.14.14,0,0,0,0-.11.21.21,0,0,0-.12,0,.79.79,0,0,0-.44.16.49.49,0,0,0-.28.41.75.75,0,0,0,.19.42.93.93,0,0,1,.2.48.51.51,0,0,1-.27.45.76.76,0,0,1-.37.1.59.59,0,0,1-.5-.23.6.6,0,0,1-.12-.38.64.64,0,0,1,.14-.43.24.24,0,0,1,.18-.11q.09,0,.09.06a.12.12,0,0,1,0,.08.72.72,0,0,0-.07.33.38.38,0,0,0,.12.28.36.36,0,0,0,.24.09A.25.25,0,0,0,26,10.6a.28.28,0,0,0,.06-.18.67.67,0,0,0-.17-.36.93.93,0,0,1-.22-.55A.7.7,0,0,1,26,8.93,1.37,1.37,0,0,1,26.81,8.69Z"
        transform="translate(0)"/>
  <path class="cls-3"
        d="M28.27,8.76a5.12,5.12,0,0,0-.41.74,2.28,2.28,0,0,0-.27.87.16.16,0,0,0,0,.12.12.12,0,0,0,.1,0q.18,0,.42-.3c.1-.13.19-.26.27-.38s.09-.11.14-.11a.11.11,0,0,1,.08,0,.14.14,0,0,1,0,.06,1.44,1.44,0,0,1-.33.54c-.26.33-.5.5-.72.5a.34.34,0,0,1-.29-.15.47.47,0,0,1-.08-.28,2.24,2.24,0,0,1,.24-.92c0-.09.15-.3.33-.64l-.14,0a.2.2,0,0,1-.13,0,.14.14,0,0,1-.08-.11.15.15,0,0,1,.1-.13l.26-.05a.7.7,0,0,0,.23-.06c.08-.13.21-.32.39-.56a2.8,2.8,0,0,1,.21-.25.22.22,0,0,1,.15-.08.12.12,0,0,1,.09,0,.18.18,0,0,1,0,.09.84.84,0,0,1-.2.33,3.11,3.11,0,0,0-.18.27,2.23,2.23,0,0,1,.54-.1c.13,0,.19.05.19.15a.11.11,0,0,1-.07.11.37.37,0,0,1-.17,0,2.08,2.08,0,0,0-.52.12Z"
        transform="translate(0)"/>
  <path class="cls-3"
        d="M29.68,10.36a3.51,3.51,0,0,1-.26.32.55.55,0,0,1-.39.21.29.29,0,0,1-.26-.15.45.45,0,0,1-.07-.24,1.82,1.82,0,0,1,.38-1,1.71,1.71,0,0,1,.35-.39A.39.39,0,0,1,29.64,9a.13.13,0,0,1,.09,0,.1.1,0,0,1,0,.08s0,.1-.13.2a3.22,3.22,0,0,0-.43.59,1.26,1.26,0,0,0-.17.5.12.12,0,0,0,0,.07l.06,0c.12,0,.28-.16.49-.48a3.15,3.15,0,0,0,.28-.55.9.9,0,0,1,.16-.29.24.24,0,0,1,.19-.12.14.14,0,0,1,.09.05.13.13,0,0,1,0,.1,1.74,1.74,0,0,1-.23.53,1,1,0,0,0-.16.47.52.52,0,0,0,.11.35.68.68,0,0,0,.19.12.15.15,0,0,1,.07.14.14.14,0,0,1-.05.1.2.2,0,0,1-.13,0,.43.43,0,0,1-.31-.13.5.5,0,0,1-.16-.34A.92.92,0,0,1,29.68,10.36Z"
        transform="translate(0)"/>
  <path class="cls-3"
        d="M31.92,9c.23-.45.45-.85.65-1.19s.33-.53.4-.62A.33.33,0,0,1,33.19,7a.13.13,0,0,1,.1,0,.18.18,0,0,1,0,.09.6.6,0,0,1-.12.26c-.33.51-.63,1-.91,1.55a3.49,3.49,0,0,0-.48,1.38.56.56,0,0,0,.08.3l.12.1s0,0,0,.07a.16.16,0,0,1-.05.12.17.17,0,0,1-.12.05.26.26,0,0,1-.17-.09.57.57,0,0,1-.17-.3c0-.05,0-.14,0-.27-.24.41-.47.62-.68.62a.33.33,0,0,1-.3-.21.61.61,0,0,1-.08-.3,1.72,1.72,0,0,1,.39-1,1.07,1.07,0,0,1,.83-.51A.49.49,0,0,1,31.92,9Zm-.11.27a.32.32,0,0,0-.16-.06.71.71,0,0,0-.55.34,1.41,1.41,0,0,0-.33.85.15.15,0,0,0,0,.09.12.12,0,0,0,.12.08c.08,0,.18-.07.29-.22a4.18,4.18,0,0,0,.42-.7l.14-.27,0-.07Z"
        transform="translate(0)"/>
  <path class="cls-3"
        d="M33.27,8.9a.14.14,0,0,1,.1,0,.14.14,0,0,1,0,.07.38.38,0,0,1-.1.19,6.89,6.89,0,0,0-.5.87c-.11.23-.2.48-.29.72s-.09.17-.17.17a.14.14,0,0,1-.11-.06.16.16,0,0,1,0-.09,3.17,3.17,0,0,1,.22-.65,3.91,3.91,0,0,1,.55-1A1.79,1.79,0,0,1,33.14,9,.22.22,0,0,1,33.27,8.9Zm.65-1.21a.13.13,0,0,1,.15.15.47.47,0,0,1-.15.3.36.36,0,0,1-.27.16.14.14,0,0,1-.11,0,.15.15,0,0,1,0-.11.5.5,0,0,1,.18-.33A.36.36,0,0,1,33.92,7.69Z"
        transform="translate(0)"/>
  <path class="cls-3"
        d="M34.62,8.75c.18,0,.28.11.28.33a2.21,2.21,0,0,1-.42,1.1c-.31.49-.6.73-.89.73a.31.31,0,0,1-.29-.18.46.46,0,0,1,0-.21,1.75,1.75,0,0,1,.3-.91,2.27,2.27,0,0,1,.66-.71A.77.77,0,0,1,34.62,8.75ZM34.26,10c-.06,0-.08-.08-.08-.1s0-.07.11-.15a.91.91,0,0,0,.3-.53.09.09,0,0,0,0-.05.11.11,0,0,0-.09-.05.62.62,0,0,0-.32.2,2.48,2.48,0,0,0-.42.54,1.23,1.23,0,0,0-.17.53.18.18,0,0,0,0,.1.13.13,0,0,0,.11.06.49.49,0,0,0,.35-.24.63.63,0,0,0,.13-.2A.49.49,0,0,0,34.26,10Z"
        transform="translate(0)"/>
  <path class="cls-2"
        d="M5.86,19.64l1-.58c.14-.09.55-.32,1.21-.67.27-.14.61-.31,1-.49a1.71,1.71,0,0,1,.52-.17.25.25,0,0,1,.16.06.29.29,0,0,1,.09.22.3.3,0,0,1-.15.25,2,2,0,0,1-.36.14,11.14,11.14,0,0,0-3.13,1.71A11.1,11.1,0,0,0,6,21.3a13.53,13.53,0,0,0-.19,2.08,1,1,0,0,0,.08.46.25.25,0,0,0,.23.15c.21,0,.62-.42,1.24-1.25.12-.16.21-.24.28-.24s.14.06.14.16a2.38,2.38,0,0,1-.51.93c-.49.69-.94,1-1.34,1a.65.65,0,0,1-.67-.51,2.67,2.67,0,0,1-.1-.81,8.7,8.7,0,0,1,.26-2.08c.17-.74.27-1.2.31-1.38-.22.38-.63,1-1.23,2a9.77,9.77,0,0,0-1.28,2.82c-.06.23-.17.34-.33.34a.29.29,0,0,1-.25-.14.48.48,0,0,1,0-.22,4,4,0,0,1,.48-1.44c.18-.38.42-.85.73-1.41.12-.2.38-.61.79-1.22a17.31,17.31,0,0,0,1.68-3,2.88,2.88,0,0,1,.19-.41.32.32,0,0,1,.26-.12.19.19,0,0,1,.14.05.23.23,0,0,1,.09.19A7.42,7.42,0,0,1,5.86,19.64Z"
        transform="translate(0)"/>
  <path class="cls-2"
        d="M9.64,23.62c-.17.22-.31.4-.44.54a1,1,0,0,1-.68.36.48.48,0,0,1-.44-.25A.7.7,0,0,1,8,23.86a3.06,3.06,0,0,1,.64-1.67,3,3,0,0,1,.59-.66.64.64,0,0,1,.38-.19.21.21,0,0,1,.15.07.17.17,0,0,1,.06.12.68.68,0,0,1-.22.35,6.12,6.12,0,0,0-.74,1,2.06,2.06,0,0,0-.29.85.17.17,0,0,0,0,.13.16.16,0,0,0,.11,0c.2,0,.47-.28.83-.82a5.25,5.25,0,0,0,.47-1,2.22,2.22,0,0,1,.28-.5.44.44,0,0,1,.32-.19.21.21,0,0,1,.16.07.25.25,0,0,1,.08.18,2.82,2.82,0,0,1-.41.9,1.81,1.81,0,0,0-.27.82.91.91,0,0,0,.19.59,1.06,1.06,0,0,0,.32.22.24.24,0,0,1,.13.23.23.23,0,0,1-.09.18.32.32,0,0,1-.22.07A.74.74,0,0,1,10,24.5a1,1,0,0,1-.28-.59A1.89,1.89,0,0,1,9.64,23.62Z"
        transform="translate(0)"/>
  <path class="cls-3"
        d="M14.9,23.54l.08-.08c.48-.45.8-.67,1-.67s.13.05.13.14a.35.35,0,0,1-.12.23,2.12,2.12,0,0,0-.65,1.29.74.74,0,0,0,.1.35.17.17,0,0,1,0,.11.1.1,0,0,1,0,.08.14.14,0,0,1-.11,0,.26.26,0,0,1-.23-.17.75.75,0,0,1-.09-.39,1.75,1.75,0,0,1,.35-1,2.67,2.67,0,0,0-.87,1c-.07.12-.14.18-.22.18a.13.13,0,0,1-.09,0,.13.13,0,0,1-.05-.12,3.13,3.13,0,0,1,.42-.93c.15-.27.27-.46.35-.59s.16-.18.23-.18.05,0,.08,0a.16.16,0,0,1,.05.11.36.36,0,0,1-.1.2A3.47,3.47,0,0,0,14.9,23.54Z"
        transform="translate(0)"/>
  <path class="cls-3"
        d="M17.44,22.75c.23-.46.45-.85.65-1.19a6.35,6.35,0,0,1,.4-.62.29.29,0,0,1,.22-.14.13.13,0,0,1,.1,0,.12.12,0,0,1,0,.09.53.53,0,0,1-.12.25c-.33.51-.63,1-.91,1.56a3.34,3.34,0,0,0-.47,1.38.5.5,0,0,0,.07.29.72.72,0,0,0,.12.11s0,0,0,.06a.13.13,0,0,1,0,.12.14.14,0,0,1-.12.06.24.24,0,0,1-.17-.1.51.51,0,0,1-.17-.3c0-.05,0-.13,0-.27-.24.42-.47.62-.68.62a.32.32,0,0,1-.3-.2.61.61,0,0,1-.08-.3,1.7,1.7,0,0,1,.39-1,1.08,1.08,0,0,1,.83-.51A.41.41,0,0,1,17.44,22.75Zm-.11.27a.32.32,0,0,0-.16-.06.71.71,0,0,0-.55.34,1.4,1.4,0,0,0-.33.84.16.16,0,0,0,0,.1.12.12,0,0,0,.12.08c.08,0,.18-.08.29-.23a3.71,3.71,0,0,0,.42-.69c.05-.09.09-.19.14-.28l0-.06Z"
        transform="translate(0)"/>
  <path class="cls-3"
        d="M18.16,24v.06a.2.2,0,0,0,0,.13.32.32,0,0,0,.28.12,1.53,1.53,0,0,0,1-.63.26.26,0,0,1,.17-.11.07.07,0,0,1,.06,0s0,0,0,.05-.11.22-.32.43a2.51,2.51,0,0,1-.55.39,1.16,1.16,0,0,1-.54.15.5.5,0,0,1-.4-.17.47.47,0,0,1-.1-.32,1.56,1.56,0,0,1,.54-1.09,1.19,1.19,0,0,1,.77-.43.3.3,0,0,1,.16.05.23.23,0,0,1,.09.18.85.85,0,0,1-.17.43A1.77,1.77,0,0,1,18.16,24Zm.08-.25a1.42,1.42,0,0,0,.37-.18,1.43,1.43,0,0,0,.38-.4.22.22,0,0,0,.05-.14S19,23,19,23a.54.54,0,0,0-.25.13A1.63,1.63,0,0,0,18.24,23.78Z"
        transform="translate(0)"/>
  <path class="cls-3"
        d="M20.45,23.54l.08-.08c.48-.45.8-.67,1-.67s.13.05.13.14a.35.35,0,0,1-.12.23,2.12,2.12,0,0,0-.65,1.29.74.74,0,0,0,.1.35.17.17,0,0,1,.05.11A.1.1,0,0,1,21,25a.13.13,0,0,1-.1,0,.26.26,0,0,1-.24-.17.75.75,0,0,1-.09-.39,1.75,1.75,0,0,1,.35-1,2.67,2.67,0,0,0-.87,1c-.07.12-.14.18-.22.18a.13.13,0,0,1-.09,0,.17.17,0,0,1-.05-.12,3.13,3.13,0,0,1,.42-.93c.15-.27.27-.46.35-.59s.17-.18.23-.18a.12.12,0,0,1,.08,0,.16.16,0,0,1,.05.11.36.36,0,0,1-.1.2C20.59,23.31,20.51,23.43,20.45,23.54Z"
        transform="translate(0)"/>
</svg>
